<svg xmlns="http://www.w3.org/2000/svg" width="350" height="50"><path d="M95.1 4.86V0l16.1 6.48v4.03l-16.1 6.5v-5l9.4-3.5z" fill="#00d700"/><path d="M6.2 43C2.8 43 0 41.28 0 37.47v-.22c0-4.64 4-6.16 8.9-6.16h2.34v-.9c0-1.87-.83-3-2.77-3a2.58 2.58 0 0 0-2.84 2.45h-5c.36-4.18 3.67-6.23 8.13-6.23s7.78 1.94 7.78 6.62v12.6h-5.2v-2.16a6 6 0 0 1-5.15 2.54zm5-6.66V34.5H9.14c-2.6 0-3.92.72-3.92 2.4v.18c0 1.3.8 2.2 2.56 2.2s3.45-.97 3.45-2.95zM28.36 43c-5.22 0-9-3.24-9-9.6v-.25c0-6.37 4-9.75 9-9.75 4.28 0 7.8 2.16 8.24 7.1h-5c-.32-1.83-1.26-3-3.1-3-2.23 0-3.78 1.76-3.78 5.47v.55c0 3.82 1.37 5.54 3.82 5.54 1.8 0 3.13-1.33 3.42-3.38h4.78C36.43 39.95 33.5 43 28.4 43zm19.58 0c-5.22 0-9-3.24-9-9.6v-.25c0-6.37 4-9.75 9-9.75 4.28 0 7.8 2.16 8.24 7.1h-5c-.32-1.83-1.26-3-3.1-3-2.23 0-3.78 1.76-3.78 5.47v.55c0 3.82 1.37 5.54 3.82 5.54 1.8 0 3.13-1.33 3.42-3.38h4.8C56 39.95 53.1 43 48 43zm19.73 0c-5.44 0-9.14-3.24-9.14-9.5v-.36c0-6.3 3.92-9.75 9-9.75 4.68 0 8.6 2.63 8.6 8.85v2.26H63.9c.22 3.38 1.66 4.68 3.92 4.68a3.25 3.25 0 0 0 3.46-2.45h4.86c-.58 3.57-3.5 6.27-8.4 6.27zm-3.74-12H71c-.1-2.77-1.37-4-3.46-4-1.62.06-3.13.96-3.56 4.02zm15.4-7.23h5.25v2.8a6.13 6.13 0 0 1 5.69-3.2c3.42 0 5.7 2.05 5.7 6.62v12.6h-5.23V30.8c0-2.2-.9-3.17-2.8-3.17a3.15 3.15 0 0 0-3.31 3.49V42.6h-5.25zm26.46-5.7v5.7h3.6v3.92h-3.6v8.93c0 1.4.65 2.05 1.87 2.05a4.53 4.53 0 0 0 1.83-.32v4.15a10.74 10.74 0 0 1-3 .4c-4.1 0-6-1.87-6-5.7v-9.5h-2.2V23.8h2.2v-3.53zm23.4 24.5h-5.26v-2.77a5.74 5.74 0 0 1-5.47 3.17c-3.38 0-5.87-2.05-5.87-6.48V23.8h5.3v12c0 2.16.86 3.17 2.74 3.17a3.17 3.17 0 0 0 3.31-3.49V23.8h5.26zm3.82-18.83h5.25v3.45a5.62 5.62 0 0 1 5.65-3.71v5.18c-3.56 0-5.65 1.08-5.65 4.2v9.68h-5.25zM154.74 43c-5.44 0-9.14-3.24-9.14-9.5v-.36c0-6.3 3.92-9.75 9-9.75 4.68 0 8.6 2.63 8.6 8.85v2.26h-12.25c.22 3.38 1.66 4.68 3.92 4.68a3.25 3.25 0 0 0 3.46-2.45h4.86c-.58 3.57-3.45 6.27-8.45 6.27zM151 31h7.06c-.1-2.77-1.37-4-3.46-4-1.64.06-3.15.96-3.58 4.02z" fill="#fff"/><path d="M171.36 19.62v4.18h4.07v2.3h-4.07v11.77c0 1.83.76 2.66 2.23 2.66a5.23 5.23 0 0 0 2-.32v2.3a6.34 6.34 0 0 1-2.23.36c-3.2 0-4.75-1.84-4.75-4.7v-12h-2.47v-2.3h2.48v-4.18zm14.5 23.3c-4.82 0-8.1-3.28-8.1-8.57v-2.2c0-5.22 3.2-8.64 7.88-8.64 4.1 0 7.56 2.45 7.56 8.4v1.8h-12.67v.6c0 4.2 1.87 6.37 5.36 6.37 2.66 0 4.2-1.15 4.57-3.35h2.66c-.5 3.7-3.3 5.58-7.27 5.58zm-5.33-11.4h9.93v-.4c-.1-3.82-2-5.36-4.82-5.36s-4.9 1.76-5.1 5.76zm23.58 11.4c-4.72 0-8.2-3.17-8.2-8.53v-2.23c0-5.3 3.6-8.64 8.1-8.64 3.67 0 6.9 1.7 7.34 6.23h-2.66c-.32-3-2.3-4-4.68-4-3.1 0-5.33 2.38-5.33 6.4v2.23c0 4.18 2.2 6.3 5.44 6.3a4.56 4.56 0 0 0 4.82-4.5h2.52a7 7 0 0 1-7.34 6.71zm10.8-27.64h2.7v11.37a5.91 5.91 0 0 1 5.54-3.13c3.53 0 6 2 6 6.9v12.2h-2.74v-12.4c0-3-1.26-4.43-4-4.43a4.56 4.56 0 0 0-4.79 4.75V42.6h-2.7zm18.58 8.53h2.7v2.84a5.91 5.91 0 0 1 5.54-3.14c3.53 0 6 2 6 6.9v12.2H245v-12.4c0-3-1.26-4.43-4-4.43a4.56 4.56 0 0 0-4.79 4.75V42.6h-2.7zm17.68 10.55V32.1c0-5.15 3.46-8.6 8.24-8.6s8.2 3.38 8.2 8.57v2.23c0 5.22-3.42 8.6-8.24 8.6s-8.22-3.53-8.22-8.57zm13.68 0v-2.2c0-4-2.12-6.4-5.44-6.4s-5.47 2.48-5.47 6.37v2.23c0 3.85 2.05 6.34 5.47 6.34s5.43-2.5 5.43-6.35zm6.48-19.08h2.77v27.36h-2.77zm6.48 19.08V32.1c0-5.15 3.45-8.6 8.24-8.6s8.2 3.38 8.2 8.57v2.23c0 5.22-3.42 8.6-8.24 8.6s-8.22-3.53-8.22-8.57zm13.68 0v-2.2c0-4-2.12-6.4-5.44-6.4s-5.47 2.48-5.47 6.37v2.23c0 3.85 2.05 6.34 5.47 6.34s5.43-2.5 5.43-6.35zm13.5 14.7c-5 0-7.27-2.3-7.67-5.36h2.74c.36 2.1 2 3.1 4.9 3.1 3.3 0 5.36-1.62 5.36-5.36v-2.7a6.84 6.84 0 0 1-5.8 3.38c-4.4 0-7.5-3.2-7.5-8.1V31.9c0-4.8 3.13-8.35 7.7-8.35a6 6 0 0 1 5.58 3.2v-2.92h2.7v17.7c-.01 5.1-3.28 7.5-8.03 7.5zm5.36-15.26v-1.94c0-3.85-2-6.08-5.3-6.08s-5.25 2.38-5.25 6v2.16c0 3.82 2.2 5.87 5.08 5.87 3.15.01 5.45-2.2 5.45-6.04zm13.53 3.72l4.8-13.68h2.8l-9.32 24.94h-2.74l3-8-6.66-17h2.88z" fill="#00d700"/></svg>